<svg width="164" height="51" viewBox="0 0 164 51" fill="none" xmlns="http://www.w3.org/2000/svg">
<path d="M0 2.00025C0 0.895684 0.895414 0 1.99998 0C54.8059 0 107.631 0 161.999 0C163.103 0 164 0.895418 164 1.99999C164 17.5107 164 33.0387 164 48.9832C164 50.0878 163.105 50.9835 162 50.9835C109.194 50.9835 56.3689 50.9835 2.00112 50.9835C0.896549 50.9835 0 50.088 0 48.9835C0 33.4727 0 17.9448 0 2.00025Z" fill="#00300D"/>
<path d="M11.8251 14.4744C13.6163 14.4744 15.4075 14.4744 17.253 14.4744C18.2796 16.0877 18.2796 16.0877 18.6826 16.7481C18.9784 17.2308 19.2757 17.7122 19.5792 18.1899C19.881 18.6652 20.1772 19.1438 20.4717 19.6236C20.9262 20.364 21.3853 21.1014 21.8465 21.8375C22.0656 22.1872 22.2844 22.537 22.5032 22.8868C22.544 22.9521 22.5849 23.0174 22.627 23.0846C22.6841 23.176 22.6841 23.176 22.7424 23.2692C22.7926 23.3493 22.7926 23.3493 22.8437 23.4311C22.8753 23.482 22.9068 23.533 22.9393 23.5855C22.9754 23.6427 23.0114 23.6998 23.0486 23.7587C23.1332 23.9086 23.1332 23.9086 23.1332 24.0378C23.408 23.8 23.5667 23.5039 23.747 23.1938C23.8165 23.0761 23.8861 22.9586 23.9558 22.8411C23.9911 22.7817 24.0263 22.7222 24.0627 22.661C24.2186 22.4011 24.38 22.145 24.5427 21.8893C24.6074 21.7874 24.6721 21.6855 24.7368 21.5836C24.77 21.5313 24.8032 21.4789 24.8375 21.425C25.419 20.5069 25.9902 19.5823 26.559 18.6563C27.0504 17.8568 27.5486 17.0616 28.0472 16.2666C28.1365 16.1243 28.2257 15.9819 28.3148 15.8396C28.3985 15.706 28.4823 15.5725 28.5661 15.439C28.604 15.3785 28.6419 15.3179 28.681 15.2556C28.7141 15.2029 28.7471 15.1501 28.7812 15.0958C28.9058 14.8911 29.0237 14.6824 29.1426 14.4744C30.9338 14.4744 32.725 14.4744 34.5705 14.4744C34.5705 21.9804 34.5705 29.4864 34.5705 37.2199C32.9286 37.2199 31.2866 37.2199 29.595 37.2199C29.563 29.9591 29.563 29.9591 29.5303 22.5516C29.0399 23.298 28.5494 24.0443 28.0441 24.8132C27.7373 25.2791 27.4304 25.7449 27.1233 26.2106C26.9644 26.4516 26.8054 26.6927 26.6465 26.9338C26.607 26.9937 26.5675 27.0535 26.5269 27.1152C26.2523 27.5317 25.9781 27.9483 25.704 28.3649C24.8941 29.5961 24.0823 30.8259 23.2624 32.0504C23.1521 32.0445 23.1521 32.0445 23.0039 31.9858C22.8922 31.8471 22.7966 31.713 22.7008 31.5638C22.6715 31.5195 22.6422 31.4752 22.6121 31.4296C22.5145 31.2816 22.418 31.1329 22.3214 30.9842C22.2523 30.8789 22.183 30.7737 22.1137 30.6685C21.9673 30.4458 21.8212 30.223 21.6756 29.9998C21.4608 29.6711 21.2449 29.3431 21.0286 29.0154C20.7397 28.5776 20.4512 28.1396 20.163 27.7014C19.8475 27.2215 19.5317 26.742 19.2155 26.2626C17.7856 24.0949 17.7856 24.0949 17.2368 23.2543C17.179 23.166 17.179 23.166 17.1201 23.0758C17.0694 22.998 17.0694 22.998 17.0177 22.9186C16.9894 22.8751 16.961 22.8316 16.9318 22.7868C16.8652 22.6809 16.8652 22.6809 16.8006 22.5516C16.7793 27.3921 16.758 32.2327 16.736 37.2199C15.1154 37.2199 13.4948 37.2199 11.8251 37.2199C11.8251 29.7139 11.8251 22.2078 11.8251 14.4744Z" fill="#FEFEFE"/>
<path d="M126.069 13.5051C127.69 13.5051 129.311 13.5051 130.98 13.5051C130.98 21.331 130.98 29.1568 130.98 37.2199C129.36 37.2199 127.739 37.2199 126.069 37.2199C126.048 36.4309 126.027 35.6419 126.005 34.829C125.77 35.1062 125.536 35.3834 125.294 35.669C124.601 36.3531 123.823 36.892 122.903 37.2199C122.857 37.2388 122.812 37.2578 122.764 37.2774C121.203 37.8866 119.105 37.6192 117.605 36.9702C115.564 36.0478 114.13 34.4222 113.32 32.3473C113.182 31.9773 113.063 31.6037 112.96 31.2225C112.948 31.1771 112.935 31.1317 112.923 31.0849C112.709 30.237 112.669 29.3857 112.673 28.5166C112.673 28.4657 112.674 28.4148 112.674 28.3623C112.684 25.7193 113.553 23.3131 115.441 21.4188C116.832 20.0971 118.687 19.4212 120.593 19.4298C120.676 19.4301 120.759 19.4304 120.845 19.4307C121.427 19.4379 121.955 19.4778 122.515 19.6438C122.594 19.6651 122.673 19.6863 122.754 19.7082C123.684 19.984 124.441 20.492 125.165 21.13C125.224 21.1818 125.284 21.2335 125.345 21.2868C125.594 21.5059 125.805 21.7036 126.005 21.9701C126.026 19.1766 126.047 16.3832 126.069 13.5051Z" fill="#FEFEFE"/>
<path d="M150.43 21.7116C151.697 22.8482 152.653 24.2724 153.144 25.9117C153.163 25.975 153.182 26.0382 153.202 26.1033C153.844 28.4481 153.463 30.974 152.272 33.075C151.904 33.6972 151.443 34.2399 150.947 34.7644C150.899 34.8168 150.851 34.8692 150.801 34.9231C149.151 36.6545 146.731 37.5442 144.37 37.6199C141.675 37.6699 139.216 36.858 137.245 34.9845C136.713 34.464 136.275 33.9153 135.891 33.2782C135.853 33.2152 135.853 33.2152 135.813 33.1509C134.625 31.1738 134.313 28.7985 134.793 26.5579C134.806 26.4937 134.806 26.4937 134.82 26.4281C135.296 24.2414 136.748 22.2459 138.605 21.0189C142.2 18.7214 147.154 18.87 150.43 21.7116Z" fill="#FEFEFE"/>
<path d="M106.878 21.7116C108.145 22.8482 109.101 24.2724 109.592 25.9117C109.611 25.975 109.63 26.0382 109.649 26.1033C110.291 28.4481 109.91 30.974 108.72 33.075C108.351 33.6972 107.891 34.2399 107.395 34.7644C107.347 34.8168 107.298 34.8692 107.249 34.9231C105.599 36.6545 103.178 37.5442 100.817 37.6199C98.1226 37.6699 95.6637 36.858 93.6928 34.9845C93.1604 34.464 92.7229 33.9153 92.3389 33.2782C92.3003 33.2152 92.3003 33.2152 92.261 33.1509C91.0725 31.1738 90.761 28.7985 91.2403 26.5579C91.2538 26.4937 91.2538 26.4937 91.2676 26.4281C91.744 24.2414 93.1959 22.2459 95.0525 21.0189C98.6473 18.7214 103.601 18.87 106.878 21.7116Z" fill="#FEFEFE"/>
<path d="M47.9464 19.45C48.0261 19.4519 48.1058 19.4538 48.188 19.4558C50.133 19.5461 52.0437 20.4987 53.3743 21.9054C54.377 23.025 55.0121 24.3304 55.3775 25.7825C55.3885 25.8251 55.3996 25.8678 55.411 25.9117C55.7696 27.2988 55.9378 28.8177 55.7006 30.2411C51.6917 30.2411 47.6828 30.2411 43.5524 30.2411C43.9909 31.5567 44.4662 32.5694 45.7494 33.2136C47.0678 33.7758 48.5255 33.7417 49.8648 33.262C50.5334 32.9864 51.1017 32.615 51.6478 32.1453C51.9132 31.9242 51.9132 31.9242 52.0837 31.9111C52.2817 32.0272 52.4395 32.1822 52.6029 32.3412C52.8622 32.5874 53.1227 32.825 53.4026 33.048C53.7385 33.3171 54.0519 33.6065 54.3641 33.9024C54.4189 33.9541 54.4189 33.9541 54.4748 34.0069C54.5072 34.0377 54.5396 34.0685 54.5729 34.1003C54.6785 34.1969 54.6785 34.1969 54.8605 34.3121C54.3337 35.5501 52.6 36.4864 51.4412 36.9724C50.9961 37.1496 50.5416 37.2907 50.0788 37.4137C50.035 37.4254 49.9913 37.4371 49.9462 37.4491C47.7425 38.0006 45.2279 37.5809 43.2293 36.5737C43.1357 36.5279 43.1357 36.5279 43.0403 36.4813C42.5418 36.2259 42.1076 35.8961 41.6785 35.5398C41.6283 35.4982 41.6283 35.4982 41.5772 35.4557C39.7829 33.9429 38.8717 31.7438 38.6547 29.446C38.4549 26.8208 39.172 24.2852 40.8836 22.2661C41.9434 21.0768 43.2064 20.2684 44.7155 19.773C44.7739 19.7526 44.8323 19.7322 44.8925 19.7112C45.8597 19.4058 46.9422 19.4208 47.9464 19.45Z" fill="#FEFEFE"/>
<path d="M58.2206 19.7731C58.9037 19.7581 59.5866 19.7466 60.2698 19.7396C60.587 19.7362 60.9042 19.7316 61.2214 19.7243C61.5276 19.7173 61.8338 19.7134 62.1402 19.7117C62.2569 19.7106 62.3735 19.7082 62.4902 19.7047C63.4035 19.6785 63.4035 19.6785 63.6868 19.9098C63.8044 20.0755 63.8881 20.2345 63.9716 20.4192C64.0402 20.5282 64.1101 20.6364 64.1819 20.7433C64.2533 20.856 64.3246 20.9687 64.3957 21.0816C64.4752 21.2071 64.5547 21.3326 64.6342 21.4582C64.6945 21.5534 64.6945 21.5534 64.7559 21.6506C64.9091 21.8927 65.0629 22.1343 65.2167 22.3759C65.2911 22.4927 65.3654 22.6095 65.4396 22.7263C65.6384 23.0392 65.8381 23.3516 66.0389 23.6632C66.0809 23.7286 66.1229 23.794 66.1661 23.8614C66.2472 23.9876 66.3284 24.1136 66.4099 24.2395C66.4461 24.2959 66.4822 24.3523 66.5195 24.4104C66.5516 24.4602 66.5838 24.5101 66.6169 24.5614C66.6856 24.684 66.6856 24.684 66.6856 24.8132C66.8796 24.6309 67.0241 24.4466 67.1659 24.2216C67.2074 24.1562 67.2489 24.0908 67.2916 24.0234C67.3355 23.9536 67.3794 23.8837 67.4246 23.8117C67.4945 23.7013 67.5645 23.591 67.6345 23.4807C67.6816 23.4064 67.7287 23.3321 67.7758 23.2578C67.9805 22.9345 68.1886 22.6135 68.3979 22.2931C68.6314 21.9355 68.8633 21.5769 69.0931 21.2169C69.1166 21.1801 69.14 21.1434 69.1642 21.1056C69.2796 20.9248 69.3949 20.7439 69.51 20.5629C69.5725 20.4648 69.5725 20.4648 69.6363 20.3647C69.6732 20.3066 69.7102 20.2485 69.7483 20.1887C69.7995 20.1109 69.7995 20.1109 69.8519 20.0315C69.8757 19.9862 69.8996 19.941 69.9242 19.8943C70.0769 19.742 70.1874 19.7426 70.3979 19.7409C70.4455 19.7418 70.4932 19.7428 70.5423 19.7437C70.6179 19.7437 70.6179 19.7437 70.6951 19.7436C70.8619 19.7438 71.0287 19.7458 71.1954 19.7478C71.3111 19.7483 71.4267 19.7487 71.5423 19.7489C71.8467 19.7499 72.151 19.7524 72.4554 19.7553C72.7659 19.7579 73.0765 19.7591 73.387 19.7604C73.9964 19.7632 74.6058 19.7676 75.2151 19.7731C75.144 19.8853 75.0729 19.9974 75.0017 20.1096C74.962 20.1721 74.9224 20.2345 74.8816 20.2989C74.7126 20.5621 74.5365 20.8201 74.3589 21.0775C74.3226 21.1304 74.2863 21.1833 74.2488 21.2377C74.175 21.3452 74.101 21.4527 74.0271 21.5601C73.9335 21.696 73.8401 21.8321 73.7468 21.9683C73.4012 22.4726 73.0526 22.9748 72.7031 23.4765C72.2765 24.0889 71.8537 24.7039 71.433 25.3204C70.938 26.0453 70.438 26.7665 69.9362 27.4866C69.8936 27.5477 69.851 27.6089 69.8072 27.6718C69.7691 27.7265 69.7309 27.7812 69.6917 27.8375C69.5155 28.0603 69.5155 28.0603 69.476 28.3273C69.5354 28.5176 69.6132 28.6474 69.7267 28.8115C69.7733 28.8794 69.8199 28.9474 69.868 29.0174C69.9272 29.1023 69.9864 29.1871 70.0457 29.2719C70.1225 29.3822 70.1992 29.4926 70.2759 29.603C70.4071 29.7917 70.5384 29.9804 70.6699 30.1689C70.9708 30.6004 71.2686 31.0338 71.5642 31.4689C71.895 31.9557 72.229 32.4401 72.5658 32.9228C72.9428 33.4632 73.3157 34.0062 73.686 34.5513C74.0314 35.059 74.3816 35.5632 74.7335 36.0665C75.4736 37.1262 75.4736 37.1262 75.4736 37.2199C74.7962 37.2469 74.119 37.2675 73.4412 37.2801C73.1264 37.2862 72.8119 37.2944 72.4973 37.3076C70.4677 37.3909 70.4677 37.3908 69.9883 37.1109C69.7166 36.852 69.5762 36.561 69.4577 36.2092C69.3585 35.9492 69.1976 35.7311 69.0401 35.5034C68.9807 35.412 68.9216 35.3204 68.8629 35.2286C68.7498 35.0529 68.6364 34.8773 68.5226 34.702C68.2504 34.2824 67.9792 33.8621 67.7101 33.4405C67.6869 33.4041 67.6637 33.3677 67.6398 33.3303C67.5239 33.1488 67.4082 32.9672 67.2926 32.7856C67.229 32.6859 67.229 32.6859 67.1642 32.5843C67.1075 32.4953 67.1075 32.4953 67.0497 32.4045C66.9471 32.2444 66.9471 32.2444 66.8334 32.1019C66.7502 31.9858 66.7502 31.9858 66.7502 31.8566C66.4871 32.0893 66.3223 32.3681 66.1404 32.6643C66.0711 32.7755 66.0018 32.8866 65.9324 32.9977C65.8967 33.0549 65.8611 33.112 65.8243 33.1709C65.6526 33.4442 65.4767 33.7146 65.3003 33.9849C65.2656 34.0383 65.2308 34.0916 65.195 34.1466C65.1243 34.255 65.0536 34.3633 64.9829 34.4717C64.8043 34.7454 64.6263 35.0194 64.4482 35.2934C64.4137 35.3464 64.3793 35.3995 64.3438 35.4541C64.0775 35.8637 63.8119 36.2738 63.5468 36.6842C63.4309 36.8634 63.3146 37.0423 63.1962 37.2199C63.028 37.2384 62.8753 37.2443 62.707 37.2419C62.6566 37.2419 62.6061 37.2419 62.5542 37.242C62.387 37.2418 62.2199 37.2403 62.0528 37.2388C61.9371 37.2384 61.8214 37.2382 61.7056 37.238C61.4008 37.2372 61.0959 37.2353 60.791 37.2332C60.48 37.2312 60.169 37.2303 59.8581 37.2293C59.2476 37.2272 58.6372 37.2239 58.0268 37.2199C58.0775 37.1273 58.1284 37.0348 58.1794 36.9423C58.2219 36.865 58.2219 36.865 58.2652 36.7862C58.3778 36.5896 58.5065 36.4088 58.6407 36.2264C58.8972 35.8736 59.1465 35.5167 59.3918 35.1561C59.7095 34.6898 60.0303 34.2257 60.353 33.7628C60.7771 33.1544 61.1971 32.5435 61.6151 31.931C62.0106 31.3518 62.4088 30.7745 62.8095 30.1989C62.8997 30.0691 62.9898 29.9393 63.0798 29.8094C63.2682 29.5376 63.4569 29.2666 63.6546 29.0015C63.6969 28.9438 63.6969 28.9438 63.7401 28.885C63.8119 28.7876 63.8849 28.6912 63.958 28.5949C64.0523 28.439 64.0523 28.439 64.01 28.2842C63.858 28.0253 63.6864 27.7829 63.5112 27.5393C63.1548 27.0376 62.8088 26.53 62.4693 26.0167C62.1534 25.5399 61.8318 25.0702 61.496 24.6073C61.257 24.2727 61.0324 23.9282 60.8054 23.5855C60.4855 23.1029 60.1611 22.6265 59.8215 22.1576C59.5655 21.8007 59.3198 21.4366 59.0728 21.0735C59.002 20.9697 59.002 20.9697 58.9298 20.8637C58.8846 20.7972 58.8394 20.7306 58.7929 20.6621C58.7527 20.6028 58.7124 20.5436 58.671 20.4826C58.5165 20.2488 58.3682 20.0113 58.2206 19.7731Z" fill="#FEFEFE"/>
<path d="M79.2861 15.3144C80.9067 15.3144 82.5273 15.3144 84.197 15.3144C84.197 16.7858 84.197 18.2571 84.197 19.7731C85.5617 19.7731 86.9265 19.7731 88.3326 19.7731C88.3326 21.1591 88.3326 22.5452 88.3326 23.9732C86.9678 23.9732 85.6031 23.9732 84.197 23.9732C84.2013 25.437 84.2013 25.437 84.2081 26.9008C84.211 27.4245 84.2135 27.9481 84.2145 28.4718C84.2154 28.8866 84.2171 29.3013 84.2199 29.716C84.2214 29.9354 84.2224 30.1547 84.2223 30.3741C84.2225 30.6197 84.2242 30.8653 84.2263 31.1109C84.226 31.1827 84.2257 31.2544 84.2254 31.3284C84.232 31.8304 84.2905 32.3686 84.6332 32.7617C84.9949 33.095 85.3465 33.1742 85.8326 33.1732C85.8836 33.1731 85.9345 33.173 85.987 33.1729C86.6769 33.1588 87.3482 32.9942 87.9643 32.6794C88.0741 32.632 88.0741 32.632 88.2679 32.632C88.2679 33.9328 88.2679 35.2335 88.2679 36.5737C86.2508 37.515 84.0424 37.9816 81.8708 37.2199C80.8415 36.8231 80.1486 36.0424 79.7018 35.0584C79.3665 34.1807 79.2563 33.2983 79.264 32.3653C79.2641 32.2729 79.2641 32.1804 79.264 32.0879C79.2639 31.8406 79.265 31.5933 79.2664 31.346C79.2676 31.0861 79.2677 30.8263 79.268 30.5665C79.2686 30.0761 79.2701 29.5857 79.2721 29.0953C79.2743 28.5363 79.2753 27.9773 79.2763 27.4183C79.2783 26.2699 79.2819 25.1216 79.2861 23.9732C78.6037 23.9732 77.9213 23.9732 77.2183 23.9732C77.2183 22.5872 77.2183 21.2011 77.2183 19.7731C77.9006 19.7731 78.583 19.7731 79.2861 19.7731C79.2861 18.3017 79.2861 16.8304 79.2861 15.3144Z" fill="#FEFEFE"/>
<path d="M145.39 23.844C145.484 23.877 145.484 23.877 145.579 23.9106C146.072 24.0961 146.466 24.3574 146.876 24.684C146.917 24.7144 146.958 24.7448 147.001 24.7761C147.872 25.4548 148.337 26.5394 148.528 27.5996C148.694 29.0679 148.54 30.5702 147.596 31.7607C147.551 31.8136 147.505 31.8666 147.458 31.9212C147.41 31.9768 147.362 32.0325 147.313 32.0898C146.54 32.9247 145.485 33.3696 144.352 33.4228C143.022 33.4566 141.926 33.0758 140.928 32.1718C140.041 31.3278 139.532 30.1099 139.494 28.8965C139.471 27.4882 139.651 26.17 140.645 25.0959C140.76 24.9777 140.877 24.8631 140.996 24.7486C141.05 24.6914 141.05 24.6914 141.106 24.633C142.144 23.6161 144.066 23.316 145.39 23.844Z" fill="#00300D"/>
<path d="M101.838 23.844C101.931 23.877 101.931 23.877 102.027 23.9106C102.519 24.0961 102.914 24.3574 103.324 24.684C103.365 24.7144 103.406 24.7448 103.448 24.7761C104.319 25.4548 104.785 26.5394 104.976 27.5996C105.141 29.0679 104.987 30.5702 104.044 31.7607C103.998 31.8136 103.953 31.8666 103.905 31.9212C103.858 31.9768 103.81 32.0325 103.761 32.0898C102.988 32.9247 101.933 33.3696 100.8 33.4228C99.4692 33.4566 98.3732 33.0758 97.3753 32.1718C96.4881 31.3278 95.9799 30.1099 95.942 28.8965C95.9183 27.4882 96.0986 26.17 97.0923 25.0959C97.2073 24.9777 97.3248 24.8631 97.4437 24.7486C97.4979 24.6914 97.4979 24.6914 97.5532 24.633C98.5918 23.6161 100.513 23.316 101.838 23.844Z" fill="#00300D"/>
<path d="M124.486 24.5467C125.394 25.3329 125.981 26.5333 126.134 27.721C126.224 29.2807 125.989 30.7732 124.946 31.9967C124.154 32.854 123.221 33.2937 122.059 33.3587C120.958 33.4014 119.97 33.0427 119.139 32.3049C118.2 31.4246 117.698 30.1874 117.655 28.9152C117.62 27.3133 117.931 25.9928 119.039 24.788C120.567 23.3028 122.821 23.2844 124.486 24.5467Z" fill="#01300E"/>
<path d="M49.2847 23.955C50.1771 24.625 50.6972 25.675 50.9188 26.7518C50.9188 26.8797 50.9188 27.0077 50.9188 27.1395C48.4666 27.1395 46.0143 27.1395 43.4878 27.1395C43.7132 26.0125 43.7132 26.0125 43.924 25.5967C43.9578 25.5277 43.9578 25.5277 43.9923 25.4572C44.1726 25.0999 44.379 24.7851 44.6509 24.4902C44.6859 24.4501 44.7209 24.41 44.7569 24.3687C45.9108 23.1205 47.8977 23.0757 49.2847 23.955Z" fill="#01310E"/>
</svg>
