<svg width="48" height="48" viewBox="0 0 48 48" fill="none" xmlns="http://www.w3.org/2000/svg">
<path d="M4.10156 4.09961H8.10156L13.4216 28.9396C13.6167 29.8493 14.1229 30.6626 14.853 31.2393C15.5831 31.8161 16.4914 32.1203 17.4216 32.0996H36.9816C37.8919 32.0981 38.7745 31.7862 39.4836 31.2153C40.1927 30.6444 40.6859 29.8487 40.8816 28.9596L44.1816 14.0996H10.2416M18.0016 41.9996C18.0016 43.1042 17.1061 43.9996 16.0016 43.9996C14.897 43.9996 14.0016 43.1042 14.0016 41.9996C14.0016 40.895 14.897 39.9996 16.0016 39.9996C17.1061 39.9996 18.0016 40.895 18.0016 41.9996ZM40.0016 41.9996C40.0016 43.1042 39.1061 43.9996 38.0016 43.9996C36.897 43.9996 36.0016 43.1042 36.0016 41.9996C36.0016 40.895 36.897 39.9996 38.0016 39.9996C39.1061 39.9996 40.0016 40.895 40.0016 41.9996Z" stroke="white" stroke-width="2" stroke-linecap="round" stroke-linejoin="round"/>
</svg>
